<svg xmlns="http://www.w3.org/2000/svg" viewBox="0 0 512 512">
  <rect width="512" height="512" rx="104" fill="#000"/>
  <g fill="none" stroke-linecap="round" stroke-width="30">
    <path d="M256 86a170 170 0 0 1 147 85" stroke="#ff4d4d"/>
    <path d="M403 171a170 170 0 0 1 0 170" stroke="#ffe14d"/>
    <path d="M403 341a170 170 0 0 1-147 85" stroke="#4dff88"/>
    <path d="M256 426a170 170 0 0 1-147-85" stroke="#4dd9ff"/>
    <path d="M109 341a170 170 0 0 1 0-170" stroke="#7654ff"/>
    <path d="M109 171a170 170 0 0 1 147-85" stroke="#ff4dc4"/>
  </g>
  <g>
    <circle cx="256" cy="256" r="18" fill="#fff"/>
    <circle cx="210" cy="222" r="12" fill="#4dd9ff"/>
    <circle cx="306" cy="213" r="10" fill="#ff4dc4"/>
    <circle cx="321" cy="285" r="14" fill="#ffe14d"/>
    <circle cx="226" cy="309" r="11" fill="#4dff88"/>
    <circle cx="174" cy="270" r="8" fill="#7654ff"/>
  </g>
</svg>
